<mxfile host="app.diagrams.net" modified="2024-05-17T21:27:45.291Z" agent="Mozilla/5.0 (Windows NT 10.0; Win64; x64) AppleWebKit/537.36 (KHTML, like Gecko) Chrome/124.0.0.0 Safari/537.36" version="24.4.4" etag="a0-LjsMGFYq2rmvh5hGW" type="github">
  <diagram name="Page-1" id="PT6dDdP_kU_khbzp_N_f">
    <mxGraphModel>
      <root>
        <mxCell id="0" />
        <mxCell id="1" parent="0" />
      </root>
    </mxGraphModel>
  </diagram>
</mxfile>
